<svg width="1500" height="500" viewBox="0 0 1500 500" fill="none" xmlns="http://www.w3.org/2000/svg">
  <defs>
    <pattern id="hexGrid" width="60" height="104" patternUnits="userSpaceOnUse" patternTransform="scale(0.5)">
      <path d="M30 0 L60 17.32 L60 51.96 L30 69.28 L0 51.96 L0 17.32 Z" fill="none" stroke="#FFFFFF" stroke-opacity="0.05" stroke-width="2"/>
    </pattern>
    <filter id="neonGlow" x="-50%" y="-50%" width="200%" height="200%">
      <feGaussianBlur in="SourceGraphic" stdDeviation="4" result="blur"/>
      <feColorMatrix in="blur" type="matrix" values="0 0 0 0 0  1 0 0 0 0  0.5 0 0 0 0  0 0 0 1 0" result="coloredBlur"/>
      <feMerge>
        <feMergeNode in="coloredBlur"/>
        <feMergeNode in="SourceGraphic"/>
      </feMerge>
    </filter>
    <linearGradient id="dataFade" x1="0" y1="0" x2="1" y2="0">
        <stop offset="0%" stop-color="#00FF7F" stop-opacity="0.1"/>
        <stop offset="100%" stop-color="#00FF7F" stop-opacity="0.8"/>
    </linearGradient>
  </defs>

  <rect width="1500" height="500" fill="#0D0D0D"/>
  <rect width="1500" height="500" fill="url(#hexGrid)"/>
  
  <g transform="translate(100, 50)" filter="url(#neonGlow)">
      <path d="M 50 350 C 50 350, 0 200, 150 150 C 300 100, 450 50, 600 200 C 750 350, 550 450, 350 400 C 250 375, 150 350, 50 350 Z" 
            stroke="#00FF7F" stroke-width="3" fill="none" stroke-linecap="round" stroke-dasharray="800" stroke-dashoffset="0">
            <animate attributeName="stroke-dashoffset" from="800" to="0" dur="10s" repeatCount="indefinite" />
      </path>
      
      <circle cx="150" cy="150" r="6" fill="#00FF7F"/>
      <circle cx="600" cy="200" r="6" fill="#00FF7F"/>
      <circle cx="350" cy="400" r="6" fill="#00FF7F"/>
  </g>

  <g transform="translate(850, 0)">
      
      <g transform="translate(0, 120)">
          <text x="0" y="-20" font-family="sans-serif" font-size="14" fill="#00FF7F" opacity="0.6" letter-spacing="2">BROADCAST LOG</text>
          <rect x="-20" y="0" width="500" height="80" rx="10" fill="#ffffff" fill-opacity="0.05"/>
          
          <path d="M 20 40 L 40 20 L 60 60 L 80 30 L 100 50" stroke="#00FF7F" stroke-width="3" fill="none" stroke-linecap="round" filter="url(#neonGlow)"/>
          
          <line x1="130" y1="40" x2="250" y2="40" stroke="url(#dataFade)" stroke-width="2" stroke-dasharray="4 4"/>
          
          <g transform="translate(280, 15)">
              <rect x="0" y="30" width="15" height="20" fill="#00FF7F" opacity="0.3"/>
              <rect x="25" y="20" width="15" height="30" fill="#00FF7F" opacity="0.5"/>
              <rect x="50" y="10" width="15" height="40" fill="#00FF7F" opacity="0.7"/>
              <rect x="75" y="0" width="15" height="50" fill="#00FF7F" filter="url(#neonGlow)"/> <rect x="100" y="40" width="15" height="10" fill="#00FF7F" opacity="0.3"/>
          </g>
      </g>

      <g transform="translate(50, 325)">
           <text x="0" y="-20" font-family="sans-serif" font-size="14" fill="#00FF7F" opacity="0.6" letter-spacing="2">VENUE LOG</text>
          <rect x="-20" y="0" width="500" height="80" rx="10" fill="#ffffff" fill-opacity="0.05"/>
          
          <path d="M 50 15 C 30 15, 15 30, 15 50 C 15 75, 50 100, 50 100 C 50 100, 85 75, 85 50 C 85 30, 70 15, 50 15 Z M 50 55 C 45 55, 40 50, 40 45 C 40 40, 45 35, 50 35 C 55 35, 60 40, 60 45 C 60 50, 55 55, 50 55 Z" 
                transform="translate(5, 5) scale(0.6)" stroke="#00FF7F" stroke-width="3" fill="none" filter="url(#neonGlow)"/>

          <line x1="100" y1="40" x2="220" y2="40" stroke="url(#dataFade)" stroke-width="2" stroke-dasharray="4 4"/>

          <g transform="translate(250, 20)">
              <path d="M0 10 Q 100 0, 200 10" stroke="#00FF7F" stroke-width="2" opacity="0.3" fill="none"/>
              <path d="M0 30 Q 100 20, 200 30" stroke="#00FF7F" stroke-width="2" opacity="0.5" fill="none"/>
              <path d="M0 50 Q 100 40, 200 50" stroke="#00FF7F" stroke-width="2" opacity="0.7" fill="none"/>
              <rect x="100" y="38" width="20" height="15" rx="4" fill="#00FF7F" filter="url(#neonGlow)"/>
          </g>
      </g>
  </g>
</svg>